<?xml version="1.0" encoding="utf-8"?>
<!-- Generator: Adobe Illustrator 25.4.1, SVG Export Plug-In . SVG Version: 6.00 Build 0)  -->
<svg version="1.1" id="레이어_1" xmlns="http://www.w3.org/2000/svg" xmlns:xlink="http://www.w3.org/1999/xlink" x="0px"
	 y="0px" viewBox="0 0 24 24" style="enable-background:new 0 0 24 24;" xml:space="preserve">
<style type="text/css">
	.st0{fill:#00D296;}
</style>
<g>
	<path class="st0" d="M7.5,1.4H0.3C0.1,1.4,0,1.5,0,1.7v7.2c0,0.2,0.1,0.3,0.3,0.3h7.2c0.2,0,0.3-0.1,0.3-0.3V1.7
		C7.8,1.5,7.6,1.4,7.5,1.4z"/>
	<path class="st0" d="M23.7,14.7h-7.2c-0.2,0-0.3,0.1-0.3,0.3v7.2c0,0.2,0.1,0.3,0.3,0.3h7.2c0.2,0,0.3-0.1,0.3-0.3V15
		C24,14.9,23.9,14.7,23.7,14.7z"/>
	<path class="st0" d="M23,1.4h-7.5c-0.1,0-0.1,0-0.2,0.1c-0.1,0-0.1,0.1-0.2,0.1L0.8,22.2c0,0-0.1,0.1-0.1,0.2c0,0.1,0,0.1,0,0.2
		s0.1,0.1,0.1,0.1c0,0,0.1,0,0.2,0h7.5c0.1,0,0.1,0,0.2-0.1c0.1,0,0.1-0.1,0.2-0.1L23.3,1.8c0,0,0-0.1,0-0.1c0-0.1,0-0.1,0-0.2
		c0,0-0.1-0.1-0.1-0.1C23.1,1.4,23.1,1.4,23,1.4L23,1.4z"/>
</g>
</svg>
